<svg xmlns="http://www.w3.org/2000/svg" xmlns:svg="http://www.w3.org/2000/svg" id="svg2" width="10" height="30" version="1.0"><metadata id="metadata7"/><g id="layer1"><path style="opacity:.25910931;fill:#eeeeec;fill-opacity:1;fill-rule:nonzero;stroke:none;stroke-width:1;stroke-linecap:butt;stroke-linejoin:miter;marker:none;marker-start:none;marker-mid:none;marker-end:none;stroke-miterlimit:4;stroke-dasharray:1,2;stroke-dashoffset:0;stroke-opacity:1;visibility:visible;display:inline;overflow:visible;enable-background:accumulate" id="path2385" d="M 8,5 A 3,3 0 1 1 2,5 A 3,3 0 1 1 8,5 z" transform="matrix(0.6923076,0,0,0.6923076,1.5384615,4.6153845)"/><path id="path2387" d="M 8,5 A 3,3 0 1 1 2,5 A 3,3 0 1 1 8,5 z" transform="matrix(0.6923076,0,0,0.6923076,1.5384615,11.538461)" style="opacity:.25910931;fill:#eeeeec;fill-opacity:1;fill-rule:nonzero;stroke:none;stroke-width:1;stroke-linecap:butt;stroke-linejoin:miter;marker:none;marker-start:none;marker-mid:none;marker-end:none;stroke-miterlimit:4;stroke-dasharray:1,2;stroke-dashoffset:0;stroke-opacity:1;visibility:visible;display:inline;overflow:visible;enable-background:accumulate"/><path style="opacity:.25910931;fill:#eeeeec;fill-opacity:1;fill-rule:nonzero;stroke:none;stroke-width:1;stroke-linecap:butt;stroke-linejoin:miter;marker:none;marker-start:none;marker-mid:none;marker-end:none;stroke-miterlimit:4;stroke-dasharray:1,2;stroke-dashoffset:0;stroke-opacity:1;visibility:visible;display:inline;overflow:visible;enable-background:accumulate" id="path2389" d="M 8,5 A 3,3 0 1 1 2,5 A 3,3 0 1 1 8,5 z" transform="matrix(0.6923076,0,0,0.6923076,1.5384615,18.46154)"/></g></svg>