<svg xmlns="http://www.w3.org/2000/svg" version="1.1" viewBox="0 0 32 32"><defs><linearGradient id="a" x1="16" x2="16" y1="3" y2="29" gradientUnits="userSpaceOnUse"><stop offset="0" stop-color="#fff"/><stop offset="1" stop-color="#f6f5f4"/></linearGradient></defs><metadata/><path fill="#3d3846" d="m16 2c-2.8 2.0955-9.9039 4.4598-14 3 0.458 11.149 2.306 21.206 14 25 11.694-3.7942 13.542-13.851 14-25-4.0961 1.4598-11.2-0.9045-14-3z"/><path fill="url(#a)" d="m16 2.9922c-1.571 1.0528-3.8043 2.0534-6.2988 2.6875-2.2877 0.5815-4.6033 0.72786-6.7012 0.32031 0.25934 5.1391 0.80541 9.9685 2.582 13.898 1.8645 4.1245 4.9608 7.2537 10.418 9.1016 5.4571-1.8479 8.5534-4.9771 10.418-9.1016 1.7766-3.93 2.3227-8.7593 2.582-13.898-2.0979 0.40755-4.4134 0.26119-6.7012-0.32031-2.4945-0.63407-4.7279-1.6347-6.2988-2.6875z"/><path fill="#e01b24" d="m29 6c-1.013 0.19679-2.0868 0.26164-3.1816 0.2168l-17.701 17.666c1.8565 2.185 4.3771 3.9301 7.8828 5.1172 5.4571-1.8479 8.5534-5.0318 10.418-9.1562 1.7766-3.93 2.3227-8.7047 2.582-13.844z"/><path fill="#fff" d="m21 25v-6l3-6h3l-5 10z"/><path fill="#fdfdfd" d="m21 25v-6l-3-6h-3l5 10z"/><path fill="#e01b24" d="m12 7v6l-3 6h-3l5-10z"/><path fill="#e01b24" d="m12 7v6l3 6h3l-5-10z"/><rect width="6" height="2" x="9" y="15" fill="#e01b24"/><rect width="6" height="2" x="18" y="15" fill="#fff"/></svg>