<svg xmlns="http://www.w3.org/2000/svg" xmlns:svg="http://www.w3.org/2000/svg" id="svg31" version="1" viewBox="0 0 32 32"><metadata id="metadata2"/><defs id="defs15"><linearGradient id="a" x1="-50.45" x2="-50.45" y1="-.041" y2="-22.041" gradientUnits="userSpaceOnUse"><stop id="stop4" offset="0" stop-color="#33d17a"/><stop id="stop6" offset=".071" stop-color="#33d17a"/><stop id="stop8" offset=".214" stop-color="#8ff0a4"/><stop id="stop10" offset=".464" stop-color="#33d17a"/><stop id="stop12" offset="1" stop-color="#33d17a"/></linearGradient></defs><g id="g29" transform="matrix(1.2727 0 0 1.2727 1.9478 -33.208)"><rect id="rect17" width="22" height="22" x="-50.45" y="-22.041" fill="url(#a)" stroke-width=".55" rx="11" ry="11" transform="matrix(0,-1,-1,0,0,0)"/><rect id="rect19" width="22" height="22" x="-49.664" y="-22.041" fill="#57e389" stroke-width=".55" rx="11" ry="11" transform="matrix(0,-1,-1,0,0,0)" style="fill:#2ec27e"/><path id="path23" d="M 11.040271,38.664 3.9696708,33.1638 v 11 z" style="fill:#fff"/><path id="path27" d="m 11.827231,32.37768 a 6.28568,6.28568 0 0 0 -4.6467677,2.062489 l 0.6230444,0.483392 a 5.49997,5.49997 0 0 1 4.0236993,-1.760147 5.49997,5.49997 0 0 1 5.49997,5.49997 5.49997,5.49997 0 0 1 -5.49997,5.49997 5.49997,5.49997 0 0 1 -4.0251921,-1.758655 l -0.6199724,0.483392 a 6.28568,6.28568 0 0 0 4.6451965,2.060918 6.28568,6.28568 0 0 0 6.28568,-6.28568 6.28568,6.28568 0 0 0 -6.28568,-6.28568 z m 0,1.57142 a 4.71426,4.71426 0 0 0 -3.4052674,1.456313 l 0.6245766,0.486465 a 3.92855,3.92855 0 0 1 2.7807058,-1.157115 3.92855,3.92855 0 0 1 3.92855,3.92855 3.92855,3.92855 0 0 1 -3.92855,3.92855 3.92855,3.92855 0 0 1 -2.7791343,-1.155544 l -0.6215124,0.483393 a 4.71426,4.71426 0 0 0 3.4006317,1.457884 4.71426,4.71426 0 0 0 4.71426,-4.71426 4.71426,4.71426 0 0 0 -4.71426,-4.71426 z" style="fill:#fff;stroke-width:.78570998"/></g></svg>