<svg xmlns="http://www.w3.org/2000/svg" version="1" viewBox="0 0 32 32"><metadata/><g transform="matrix(.037551 0 0 .037551 2.5 2)"><rect width="692.39" height="692.39" x="13.315" y="26.63" fill="#a51d2d" ry="0"/><rect width="692.39" height="639.13" x="13.315" y="26.63" fill="#e01b24" ry="0"/><rect width="53.261" height="559.24" x="66.576" y="53.261" fill="#a51d2d" ry="0"/><rect width="53.261" height="559.24" x="66.576" y="79.891" fill="#c01c28" ry="0"/><rect width="53.261" height="559.24" x="173.1" y="53.261" fill="#a51d2d" ry="0"/><rect width="53.261" height="559.24" x="173.1" y="79.891" fill="#c01c28" ry="0"/><rect width="53.261" height="559.24" x="279.62" y="53.261" fill="#a51d2d" ry="0"/><rect width="53.261" height="559.24" x="279.62" y="79.891" fill="#c01c28" ry="0"/><rect width="53.261" height="559.24" x="386.14" y="53.261" fill="#a51d2d" ry="0"/><rect width="53.261" height="559.24" x="386.14" y="79.891" fill="#c01c28" ry="0"/><rect width="53.261" height="559.24" x="492.66" y="53.261" fill="#a51d2d" ry="0"/><rect width="53.261" height="559.24" x="492.66" y="79.891" fill="#c01c28" ry="0"/><rect width="53.261" height="559.24" x="599.18" y="53.261" fill="#a51d2d" ry="0"/><rect width="53.261" height="559.24" x="599.18" y="79.891" fill="#c01c28" ry="0"/></g></svg>
