<svg xmlns="http://www.w3.org/2000/svg" version="1" viewBox="0 0 32 32"><metadata/><g transform="matrix(.075102 0 0 .075102 5 -28)"><rect width="372.82" height="106.52" x="-39.945" y="625.81" fill="#c0bfbc"/><rect width="372.82" height="106.52" x="-39.945" y="612.5" fill="#f6f5f4"/><path fill="#f6f5f4" d="m146.47 426.08a186.41 186.41 0 0 0 -186.41 186.41 186.41 186.41 0 0 0 33.704 106.52h305.6a186.41 186.41 0 0 0 33.522 -106.52 186.41 186.41 0 0 0 -186.41 -186.41z"/><circle cx="146.47" cy="625.81" r="39.945" fill="#c0bfbc"/><path fill="#77767b" d="m146.47 439.4a186.41 186.41 0 0 0 -186.41 186.41h40.231a146.47 166.44 0 0 1 146.18 -159.78 146.47 166.44 0 0 1 146.26 159.78h40.153a186.41 186.41 0 0 0 -186.41 -186.41z"/><path fill="#9a9996" d="m146.47 426.08a186.41 186.41 0 0 0 -186.41 186.41h40.231a146.47 166.44 0 0 1 146.18 -159.78 146.47 166.44 0 0 1 146.26 159.78h40.153a186.41 186.41 0 0 0 -186.41 -186.41z"/><path fill="#e01b24" d="m254.6 461.11-18.984 26.578a146.47 166.44 0 0 1 56.823 124.8h40.153a186.41 186.41 0 0 0 -77.992 -151.38z"/><path fill="#241f31" d="m146.47 599.18 173.1-53.261-173.1 79.891z"/><circle cx="146.47" cy="612.5" r="39.945" fill="#77767b"/><circle cx="146.47" cy="612.5" r="26.63" fill="#3d3846"/><rect width="213.04" height="213.04" x="146.47" y="585.87" fill="#f6f5f4" ry="13.315"/><path fill="#3d3846" d="m239.67 599.18-10.35 31.051c-1.2014 0.45099-2.3895 0.93659-3.5628 1.4564l-29.257-14.615-18.828 18.828 14.641 29.283c-0.54552 1.1639-1.0571 2.3433-1.5344 3.5368l-30.999 10.35v26.63l31.051 10.35c0.45098 1.2014 0.93658 2.3895 1.4563 3.5628l-14.615 29.257 18.828 18.828 29.283-14.641c1.1639 0.54552 2.3433 1.0572 3.5368 1.5344l10.35 30.999h26.63l10.35-31.051c1.2014-0.45098 2.3895-0.93659 3.5628-1.4563l29.257 14.615 18.828-18.828-14.641-29.283c0.54552-1.1639 1.0572-2.3433 1.5344-3.5368l30.999-10.35v-26.63l-31.051-10.35c-0.45098-1.2014-0.93659-2.3895-1.4563-3.5628l14.615-29.257-18.828-18.828-29.283 14.641c-1.1639-0.54552-2.3433-1.0572-3.5368-1.5344l-10.35-30.999zm13.315 53.261c22.061 0 39.945 17.884 39.945 39.945s-17.884 39.945-39.945 39.945-39.945-17.884-39.945-39.945 17.884-39.945 39.945-39.945z"/></g></svg>
