<svg xmlns="http://www.w3.org/2000/svg" xmlns:svg="http://www.w3.org/2000/svg" id="svg48" version="1" viewBox="0 0 32 32"><metadata id="metadata2"/><rect id="rect4" width="26" height="26" x="3" y="4" fill="#b5835a" ry="0"/><rect id="rect6" width="26" height="26" x="3" y="3" fill="#cdab8f" ry="0"/><rect id="rect8" width="12" height="4" x="3" y="3" fill="#a51d2d" ry="0"/><rect id="rect10" width="12" height="4" x="17" y="3" fill="#a51d2d" ry="0"/><rect id="rect12" width="12" height="4.5" x="10" y="9.5" fill="#a51d2d" ry="0"/><rect id="rect14" width="5" height="5" x="24" y="9" fill="#a51d2d" ry="0"/><rect id="rect16" width="5" height="5" x="3" y="9" fill="#a51d2d" ry="0"/><rect id="rect18" width="12" height="4" x="3" y="2" fill="#e01b24" ry="0"/><rect id="rect20" width="12" height="4" x="17" y="2" fill="#e01b24" ry="0"/><rect id="rect22" width="12" height="4" x="10" y="9" fill="#e01b24" ry="0"/><rect id="rect24" width="5" height="4" x="24" y="9" fill="#e01b24" ry="0"/><rect id="rect26" width="5" height="4" x="3" y="9" fill="#e01b24" ry="0"/><rect id="rect28" width="12" height="4" x="3" y="17" fill="#a51d2d" ry="0"/><rect id="rect30" width="12" height="4" x="17" y="17" fill="#a51d2d" ry="0"/><rect id="rect32" width="12" height="4.5" x="10" y="23.5" fill="#a51d2d" ry="0"/><rect id="rect34" width="5" height="4" x="24" y="24" fill="#a51d2d" ry="0"/><rect id="rect36" width="5" height="4" x="3" y="24" fill="#a51d2d" ry="0"/><rect id="rect38" width="12" height="4" x="3" y="16" fill="#e01b24" ry="0"/><rect id="rect40" width="12" height="4" x="17" y="16" fill="#e01b24" ry="0"/><rect id="rect42" width="12" height="4" x="10" y="23" fill="#e01b24" ry="0"/><rect id="rect44" width="5" height="4" x="24" y="23" fill="#e01b24" ry="0"/><rect id="rect46" width="5" height="4" x="3" y="23" fill="#e01b24" ry="0"/><rect style="fill:#f6f5f4" id="rect872" width="16" height="16" x="16" y="16" ry="1"/><rect style="fill:#3d3846" id="rect874" width="2" height="12" x="23" y="18" ry="0"/><rect style="fill:#3d3846" id="rect876" width="12" height="2" x="18" y="23"/></svg>
