<svg xmlns="http://www.w3.org/2000/svg" xmlns:svg="http://www.w3.org/2000/svg" id="svg215" width="32" height="32" version="1.1" viewBox="0 0 32 32"><defs id="defs15"><linearGradient id="a" x1="2" x2="30" y1="27" y2="27" gradientTransform="translate(0,-1)" gradientUnits="userSpaceOnUse"><stop id="stop2" offset="0" stop-color="#5e5c64"/><stop id="stop4" offset=".036" stop-color="#9a9996"/><stop id="stop6" offset=".071" stop-color="#5e5c64"/><stop id="stop8" offset=".929" stop-color="#5e5c64"/><stop id="stop10" offset=".964" stop-color="#9a9996"/><stop id="stop12" offset="1" stop-color="#5e5c64"/></linearGradient></defs><metadata id="metadata17"/><rect id="rect19" width="28" height="6" x="2" y="6" fill="#5e5c64" ry="1"/><rect id="rect21" width="28" height="6" x="2" y="12" fill="#5e5c64" ry="1"/><rect id="rect23" width="28" height="6" x="2" y="18" fill="#5e5c64" ry="1.059"/><rect id="rect25" width="28" height="5" x="2" y="23" fill="url(#a)" ry="1"/><rect id="rect27" width="28" height="5" x="2" y="3" fill="#9a9996" ry="1"/><rect id="rect29" width="28" height="5" x="2" y="9" fill="#9a9996" ry="1"/><rect id="rect31" width="28" height="5" x="2" y="15" fill="#9a9996" ry="1"/><rect id="rect33" width="28" height="5" x="2" y="21" fill="#9a9996" ry="1"/><rect id="rect35" width="15" height="3" x="14" y="4" fill="#3d3846" ry="0"/><rect id="rect37" width="15" height="2" x="14" y="5" fill="#5e5c64" ry="0"/><rect id="rect39" width="15" height="3" x="14" y="10" fill="#3d3846" ry="0"/><rect id="rect41" width="15" height="2" x="14" y="11" fill="#5e5c64" ry="0"/><rect id="rect43" width="15" height="3" x="14" y="16" fill="#3d3846" ry="0"/><rect id="rect45" width="15" height="2" x="14" y="17" fill="#5e5c64" ry="0"/><rect id="rect47" width="15" height="3" x="14" y="22" fill="#3d3846" ry="0"/><rect id="rect49" width="15" height="2" x="14" y="23" fill="#5e5c64" ry="0"/><rect id="rect51" width="1" height="2" x="4" y="4" fill="#5e5c64" ry=".5"/><rect id="rect53" width="1" height="1" x="4" y="5" fill="#f6d32d" ry=".5"/><rect id="rect55" width="1" height="2" x="6" y="4" fill="#5e5c64" ry=".5"/><rect id="rect57" width="1" height="1" x="6" y="5" fill="#33d17a" ry=".5"/><rect id="rect59" width="1" height="2" x="4" y="10" fill="#5e5c64" ry=".5"/><rect id="rect61" width="1" height="1" x="4" y="11" fill="#33d17a" ry=".5"/><rect id="rect63" width="1" height="2" x="6" y="10" fill="#5e5c64" ry=".5"/><rect id="rect65" width="1" height="1" x="6" y="11" fill="#e01b24" ry=".5"/><rect id="rect67" width="1" height="2" x="4" y="16" fill="#5e5c64" ry=".5"/><rect id="rect69" width="1" height="1" x="4" y="17" fill="#e01b24" ry=".5"/><rect id="rect71" width="1" height="2" x="6" y="16" fill="#5e5c64" ry=".5"/><rect id="rect73" width="1" height="1" x="6" y="17" fill="#f6d32d" ry=".5"/><rect id="rect75" width="1" height="2" x="4" y="22" fill="#5e5c64" ry=".5"/><rect id="rect77" width="1" height="1" x="4" y="23" fill="#f6d32d" ry=".5"/><rect id="rect79" width="1" height="2" x="6" y="22" fill="#5e5c64" ry=".5"/><rect id="rect81" width="1" height="1" x="6" y="23" fill="#33d17a" ry=".5"/><rect id="rect83" width="1" height="2" x="15" y="11" fill="#3d3846"/><rect id="rect85" width="1" height="1" x="15" y="10" fill="#241f31"/><rect id="rect87" width="1" height="2" x="17" y="11" fill="#3d3846"/><rect id="rect89" width="1" height="1" x="17" y="10" fill="#241f31"/><rect id="rect91" width="1" height="2" x="19" y="11" fill="#3d3846"/><rect id="rect93" width="1" height="1" x="19" y="10" fill="#241f31"/><rect id="rect95" width="1" height="2" x="21" y="11" fill="#3d3846"/><rect id="rect97" width="1" height="1" x="21" y="10" fill="#241f31"/><rect id="rect99" width="1" height="2" x="23" y="11" fill="#3d3846"/><rect id="rect101" width="1" height="1" x="23" y="10" fill="#241f31"/><rect id="rect103" width="1" height="2" x="25" y="11" fill="#3d3846"/><rect id="rect105" width="1" height="1" x="25" y="10" fill="#241f31"/><rect id="rect107" width="1" height="2" x="27" y="11" fill="#3d3846"/><rect id="rect109" width="1" height="1" x="27" y="10" fill="#241f31"/><rect id="rect111" width="1" height="2" x="15" y="5" fill="#3d3846"/><rect id="rect113" width="1" height="1" x="15" y="4" fill="#241f31"/><rect id="rect115" width="1" height="2" x="17" y="5" fill="#3d3846"/><rect id="rect117" width="1" height="1" x="17" y="4" fill="#241f31"/><rect id="rect119" width="1" height="2" x="19" y="5" fill="#3d3846"/><rect id="rect121" width="1" height="1" x="19" y="4" fill="#241f31"/><rect id="rect123" width="1" height="2" x="21" y="5" fill="#3d3846"/><rect id="rect125" width="1" height="1" x="21" y="4" fill="#241f31"/><rect id="rect127" width="1" height="2" x="23" y="5" fill="#3d3846"/><rect id="rect129" width="1" height="1" x="23" y="4" fill="#241f31"/><rect id="rect131" width="1" height="2" x="25" y="5" fill="#3d3846"/><rect id="rect133" width="1" height="1" x="25" y="4" fill="#241f31"/><rect id="rect135" width="1" height="2" x="27" y="5" fill="#3d3846"/><rect id="rect137" width="1" height="1" x="27" y="4" fill="#241f31"/><rect id="rect139" width="1" height="2" x="15" y="17" fill="#3d3846"/><rect id="rect141" width="1" height="1" x="15" y="16" fill="#241f31"/><rect id="rect143" width="1" height="2" x="17" y="17" fill="#3d3846"/><rect id="rect145" width="1" height="1" x="17" y="16" fill="#241f31"/><rect id="rect147" width="1" height="2" x="19" y="17" fill="#3d3846"/><rect id="rect149" width="1" height="1" x="19" y="16" fill="#241f31"/><rect id="rect151" width="1" height="2" x="21" y="17" fill="#3d3846"/><rect id="rect153" width="1" height="1" x="21" y="16" fill="#241f31"/><rect id="rect155" width="1" height="2" x="23" y="17" fill="#3d3846"/><rect id="rect157" width="1" height="1" x="23" y="16" fill="#241f31"/><rect id="rect159" width="1" height="2" x="25" y="17" fill="#3d3846"/><rect id="rect161" width="1" height="1" x="25" y="16" fill="#241f31"/><rect id="rect163" width="1" height="2" x="27" y="17" fill="#3d3846"/><rect id="rect165" width="1" height="1" x="27" y="16" fill="#241f31"/><rect id="rect167" width="1" height="2" x="15" y="23" fill="#3d3846"/><rect id="rect169" width="1" height="1" x="15" y="22" fill="#241f31"/><rect id="rect171" width="1" height="2" x="17" y="23" fill="#3d3846"/><rect id="rect173" width="1" height="1" x="17" y="22" fill="#241f31"/><rect id="rect175" width="1" height="2" x="19" y="23" fill="#3d3846"/><rect id="rect177" width="1" height="1" x="19" y="22" fill="#241f31"/><rect id="rect179" width="1" height="2" x="21" y="23" fill="#3d3846"/><rect id="rect181" width="1" height="1" x="21" y="22" fill="#241f31"/><rect id="rect183" width="1" height="2" x="23" y="23" fill="#3d3846"/><rect id="rect185" width="1" height="1" x="23" y="22" fill="#241f31"/><rect id="rect187" width="1" height="2" x="25" y="23" fill="#3d3846"/><rect id="rect189" width="1" height="1" x="25" y="22" fill="#241f31"/><rect id="rect191" width="1" height="2" x="27" y="23" fill="#3d3846"/><rect id="rect193" width="1" height="1" x="27" y="22" fill="#241f31"/><rect id="rect195" width="16" height="16" x="16" y="16" fill="#f6f5f4" ry="1"/><path style="fill:#3d3846" id="path1055" d="m 22.999999,17 -0.77734,2.332 c -0.09023,0.03387 -0.17946,0.07034 -0.26758,0.10938 l -2.1973,-1.0977 -1.4141,1.4141 1.0996,2.1992 c -0.04097,0.08741 -0.07939,0.17599 -0.11523,0.26562 l -2.3281,0.77734 v 2 l 2.332,0.77734 c 0.03387,0.09023 0.07034,0.17946 0.10938,0.26758 l -1.0977,2.1973 1.4141,1.4141 2.1992,-1.0996 c 0.08741,0.04097 0.17599,0.0794 0.26562,0.11523 l 0.77734,2.3281 h 2 l 0.77734,-2.332 c 0.09023,-0.03387 0.17946,-0.07034 0.26758,-0.10938 l 2.1973,1.0977 1.4141,-1.4141 -1.0996,-2.1992 c 0.04097,-0.08741 0.0794,-0.17599 0.11523,-0.26562 l 2.3281,-0.77734 v -2 l -2.332,-0.77734 c -0.03387,-0.09023 -0.07034,-0.17946 -0.10938,-0.26758 l 1.0977,-2.1973 -1.4141,-1.4141 -2.1992,1.0996 c -0.08741,-0.04097 -0.17599,-0.0794 -0.26562,-0.11523 L 24.999999,17 Z m 1,4 c 1.6569,0 3,1.3431 3,3 0,1.6569 -1.3431,3 -3,3 -1.6569,0 -3,-1.3431 -3,-3 0,-1.6569 1.3431,-3 3,-3 z"/></svg>
