<svg xmlns="http://www.w3.org/2000/svg" version="1.1" viewBox="0 0 32 32"><metadata/><path fill="#5e5c64" d="m8 24c-0.554 0-1 0.49556-1 1.1111v2.7778c0 0.61556 0.446 1.1111 1 1.1111h16c0.554 0 1-0.49556 1-1.1111v-2.7778c0-0.61556-0.446-1.1111-1-1.1111z"/><path fill="#9a9996" d="m8 23c-0.554 0-1 0.49556-1 1.1111v2.7778c0 0.61556 0.446 1.1111 1 1.1111h16c0.554 0 1-0.49556 1-1.1111v-2.7778c0-0.61556-0.446-1.1111-1-1.1111z"/><path fill="#5e5c64" d="m3 5c-0.554 0-1 0.45744-1 1.0256v17.949c0 0.5682 0.446 1.0256 1 1.0256h26c0.554 0 1-0.45744 1-1.0256v-17.949c0-0.56821-0.446-1.0256-1-1.0256z"/><path fill="#9a9996" d="m3 4c-0.554 0-1 0.446-1 1v18c0 0.554 0.446 1 1 1h26c0.554 0 1-0.446 1-1v-18c0-0.554-0.446-1-1-1z"/><rect width="26" height="18" x="3" y="5" fill="#3d3846" ry="0"/><rect width="24" height="16" x="4" y="6" fill="#241f31" ry="0"/><rect width="3" height="12" x="8" y="6" fill="#f6d32d" ry="0"/><rect width="4" height="12" x="4" y="6" fill="#deddda"/><rect width="3" height="12" x="11" y="6" fill="#57e389" ry="0"/><rect width="4" height="12" x="14" y="6" fill="#33d17a" ry="0"/><rect width="3" height="12" x="18" y="6" fill="#a347ba" ry="0"/><rect width="3" height="12" x="21" y="6" fill="#e01b24" ry="0"/><rect width="4" height="1" x="4" y="18" fill="#1a5db4" ry="0"/><rect width="3" height="1" x="8" y="18" ry="0"/><rect width="3" height="1" x="11" y="18" fill="#813d9c" ry="0"/><rect width="3" height="1" x="18" y="18" fill="#62a0ea" ry="0"/><rect width="3" height="1" x="21" y="18" ry="0"/><rect width="4" height="1" x="24" y="18" fill="#b3b3b3" ry="0"/><rect width="4" height="1" x="14" y="18" ry="0"/><rect width="4" height="3" x="8" y="19" fill="#fff" ry="0"/><rect width="4" height="3" x="12" y="19" fill="#1a5fb4" ry="0"/><rect width="4" height="3" x="16" y="19" ry="0"/><rect width="4" height="3" x="20" y="19" fill="#3d3846" ry="0"/><rect width="4" height="12" x="24" y="6" fill="#3584e4"/><rect width="4" height="3" x="24" y="19" fill="#241f31"/><rect width="4" height="3" x="4" y="19" fill="#613583"/><path fill="#fff" d="m4 6h18l-4 16h-14z" opacity=".3"/></svg>
