<svg xmlns="http://www.w3.org/2000/svg" xmlns:svg="http://www.w3.org/2000/svg" id="svg35" version="1.1" viewBox="0 0 32 32"><defs id="defs13"><linearGradient id="a" x1="-50.45" x2="-50.45" y1="-.041" y2="-22.041" gradientUnits="userSpaceOnUse"><stop id="stop2" offset="0" stop-color="#1b887e"/><stop id="stop4" offset=".071" stop-color="#1b887e"/><stop id="stop6" offset=".214" stop-color="#25b9ab"/><stop id="stop8" offset=".464" stop-color="#1b887e"/><stop id="stop10" offset="1" stop-color="#1b887e"/></linearGradient></defs><metadata id="metadata15"/><g id="g897"><g id="g868" transform="matrix(0.5,0,0,0.5,0,8)"><path style="fill:#cdab8f" id="path846" d="M 8,-6 2,4 8,6 Z"/><path style="fill:#cdab8f" id="path848" d="M 56,-6 62,4 56,6 Z"/><rect style="fill:#cdab8f" id="rect850" width="48" height="44" x="8" y="-6" ry="0"/><rect style="fill:#dec7b4" id="rect852" width="48" height="40" x="8" y="-6" ry="0"/><rect style="fill:#73ba25" id="rect854" width="34" height="40" x="22" y="-6"/><rect style="fill:#54881b" id="rect856" width="34" height="4" x="22" y="34"/><path style="opacity:.2;fill:#63452c" id="path858" d="M 26,24 V 38 H 38 V 24 l -6,4 z"/><path style="fill:#dec7b4" id="path860" d="M 8,-6 6,10 H 32 V -6 Z"/><path style="fill:#73ba25" id="path862" d="M 22,10 H 58 L 56,-6 H 22 Z"/><rect style="fill:#cdab8f" id="rect864" width="26" height="2" x="6" y="10"/><rect style="fill:#54881b" id="rect866" width="36" height="2" x="22" y="10"/></g></g><rect id="rect31" width="16" height="16" x="16" y="16" fill="#f6f5f4" ry="1"/><path id="path33" fill="#3d3846" d="m23 17-0.77734 2.332c-0.09023 0.03387-0.17946 0.07034-0.26758 0.10938l-2.1973-1.0977-1.4141 1.4141 1.0996 2.1992c-0.04097 0.08741-0.07939 0.17599-0.11523 0.26562l-2.3281 0.77734v2l2.332 0.77734c0.03387 0.09023 0.07034 0.17946 0.10938 0.26758l-1.0977 2.1973 1.4141 1.4141 2.1992-1.0996c0.08741 0.04097 0.17599 0.0794 0.26562 0.11523l0.77734 2.3281h2l0.77734-2.332c0.09023-0.03387 0.17946-0.07034 0.26758-0.10938l2.1973 1.0977 1.4141-1.4141-1.0996-2.1992c0.04097-0.08741 0.0794-0.17599 0.11523-0.26562l2.3281-0.77734v-2l-2.332-0.77734c-0.03387-0.09023-0.07034-0.17946-0.10938-0.26758l1.0977-2.1973-1.4141-1.4141-2.1992 1.0996c-0.08741-0.04097-0.17599-0.0794-0.26562-0.11523l-0.77734-2.3281zm1 4c1.6569 0 3 1.3431 3 3s-1.3431 3-3 3-3-1.3431-3-3 1.3431-3 3-3z"/></svg>