<svg xmlns="http://www.w3.org/2000/svg" width="32" height="32" version="1.1" viewBox="0 0 32 32"><metadata/><g transform="matrix(.5 0 0 .5 0 -529.26)"><rect width="10" height="9" x="6" y="1065.5" fill="#241f31"/><rect width="10" height="9" x="20" y="1065.5" fill="#241f31"/><rect width="10" height="10" x="34" y="1064.5" fill="#241f31"/><rect width="10" height="10" x="48" y="1064.5" fill="#241f31"/><rect width="10" height="8" x="6" y="1064.5" fill="#3d3846"/><rect width="10" height="8" x="20" y="1064.5" fill="#3d3846"/><rect width="10" height="8" x="34" y="1064.5" fill="#3d3846"/><rect width="10" height="8" x="48" y="1064.5" fill="#3d3846"/><rect width="10" height="9" x="6" y="1079.5" fill="#241f31"/><rect width="10" height="9" x="20" y="1079.5" fill="#26a269"/><rect width="10" height="10" x="34" y="1078.5" fill="#e5a50a"/><rect width="10" height="10" x="48" y="1078.5" fill="#241f31"/><rect width="10" height="8" x="6" y="1078.5" fill="#3d3846"/><rect width="10" height="8" x="20" y="1078.5" fill="#33d17a"/><rect width="10" height="8" x="34" y="1078.5" fill="#f6d32d"/><rect width="10" height="8" x="48" y="1078.5" fill="#3d3846"/><rect width="10" height="9" x="6" y="1093.5" fill="#241f31"/><rect width="10" height="9" x="20" y="1093.5" fill="#241f31"/><rect width="10" height="10" x="34" y="1092.5" fill="#241f31"/><rect width="10" height="10" x="48" y="1092.5" fill="#241f31"/><rect width="10" height="8" x="6" y="1092.5" fill="#3d3846"/><rect width="10" height="8" x="20" y="1092.5" fill="#3d3846"/><rect width="10" height="8" x="34" y="1092.5" fill="#3d3846"/><rect width="10" height="8" x="48" y="1092.5" fill="#3d3846"/><rect width="10" height="9" x="6" y="1107.5" fill="#241f31"/><rect width="10" height="9" x="20" y="1107.5" fill="#1a5fb4"/><rect width="10" height="10" x="34" y="1106.5" fill="#a51d2d"/><rect width="10" height="10" x="48" y="1106.5" fill="#c64600"/><rect width="10" height="8" x="6" y="1106.5" fill="#3d3846"/><rect width="10" height="8" x="20" y="1106.5" fill="#3584e4"/><rect width="10" height="8" x="34" y="1106.5" fill="#e01b24"/><rect width="10" height="8" x="48" y="1106.5" fill="#ff7800"/></g></svg>
